<svg width="185" height="217" viewBox="0 0 185 217" fill="none" xmlns="http://www.w3.org/2000/svg">
<path d="M92.1676 0H92.6315L184.737 54.1146C185.23 89.9077 184.904 127.051 184.77 162.909C154.383 180.938 123.064 199.47 92.435 217C74.8634 207.11 57.0885 196.337 39.6177 186.149L15.3029 171.885C10.426 169.029 4.69156 165.854 0 162.795L0.0080849 54.111L92.1676 0Z" fill="#0F1011"/>
<path d="M92.5582 18C95.7068 19.7367 98.9668 21.6687 102.055 23.5172C124.29 36.8315 146.917 49.69 168.994 63.2584L169 153.899C166.741 155.031 162.915 157.43 160.626 158.774L143.704 168.753L92.6254 199C67.084 184.585 41.6365 168.437 16.0336 153.866L16 63.259C41.4319 48.024 66.9515 32.9374 92.5582 18Z" fill="white"/>
<path d="M131.92 82.6358C131.675 79.7919 131.945 76.8528 133.4 74.3462C134.867 71.8563 137.276 70.0653 140.081 69.3789C143.061 68.6328 146.214 69.1304 148.82 70.7567C160.797 78.1779 150.157 98.2454 135.671 88.5312C129.2 92.4841 122.701 96.3935 116.176 100.258L116.173 123.107L112.182 125.539L96.4122 134.918C96.2993 141.859 96.398 149.159 96.3955 156.126C98.7616 157.364 101.349 159.111 102.596 161.535C105.438 167.06 103.899 173.753 98.2805 176.689C95.5929 178.121 92.4386 178.392 89.5467 177.442C82.2343 175.057 79.5715 166.532 84.1672 160.244C85.4756 158.453 87.5047 157.233 89.4828 156.277L89.4915 135.014C83.2212 131.011 76.1924 126.932 69.7893 123.095C69.5491 116.35 69.6733 107.095 69.8731 100.321C63.4527 96.5246 56.553 92.5847 50.3343 88.5406C46.242 91.3007 41.2969 92.1865 36.9868 89.3289C34.4469 87.61 32.7108 84.935 32.1739 81.914C31.6526 78.9967 32.3142 75.9924 34.0118 73.5647C36.0719 70.6524 38.6224 69.6062 41.9871 69.0565C42.3695 69.0136 42.7537 68.995 43.1379 69.0012C51.202 69.149 54.2105 75.3706 54.0355 82.5849C60.4144 86.1986 67.1564 90.4148 73.4738 94.2186C79.8465 90.5322 86.6077 86.1961 93.0046 82.7619C97.9776 85.2667 107.209 91.1559 112.375 94.2086C118.85 90.567 125.393 86.3781 131.92 82.6358Z" fill="#0F1011"/>
<path d="M92.102 91C93.5225 91.1127 103.234 97.0028 105 98.031L92.913 105C91.1174 104.961 81.9865 99.1449 80 97.9479C84.075 95.6996 88.1096 93.3833 92.102 91Z" fill="white"/>
<path d="M108.446 105C109.224 106.244 108.955 116.881 108.956 118.979C105.328 120.769 100.301 123.904 96.6336 126L96.4429 125.922C95.7476 125.045 96.0749 114.129 96.0902 112.146L108.446 105Z" fill="white"/>
<path d="M77.0331 105C81.0161 107.084 85.1211 110.153 88.9814 112.075C89.0083 116.717 89.0059 121.358 88.9748 126C87.0734 125.248 79.1572 120.189 77.0104 118.857C76.9912 114.238 76.9984 109.619 77.0331 105Z" fill="white"/>
<path d="M91.7621 163.091C93.6057 162.636 95.4324 163.933 95.8931 166.022C96.3539 168.112 95.2838 170.243 93.4724 170.842C92.2438 171.249 90.9185 170.856 90.0168 169.819C89.1156 168.782 88.7808 167.265 89.1444 165.864C89.508 164.462 90.5114 163.398 91.7621 163.091Z" fill="white"/>
<path d="M141.849 76.0706C143.672 75.6755 145.448 76.9761 145.896 79.034C146.344 81.0919 145.309 83.1925 143.537 83.8205C142.297 84.2596 140.947 83.8793 140.028 82.8316C139.109 81.7839 138.773 80.2414 139.155 78.8238C139.536 77.4061 140.573 76.3461 141.849 76.0706Z" fill="white"/>
<path d="M41.8035 76.0808C43.7016 75.6401 45.5522 77.0457 45.9316 79.2169C46.3109 81.3875 45.0748 83.4978 43.1744 83.9243C41.282 84.3489 39.4462 82.9445 39.0685 80.7837C38.6908 78.6222 39.9139 76.5196 41.8035 76.0808Z" fill="white"/>
<path d="M92.4474 42C93.8793 42.396 101.757 47.2241 103.415 48.1779L133 65.1225C128.147 69.1632 126.813 71.0004 125.427 77C114.626 70.6241 103.495 64.3718 92.6126 58.0961C89.8164 59.4202 85.4525 62.1991 82.6332 63.7772C74.9377 68.0853 67.3147 72.7843 59.5391 76.959C58.6265 71.201 56.1887 68.6946 52 65.0949C56.1355 63.1446 62.6831 59.1026 66.8981 56.6647L92.4474 42Z" fill="#0F1011"/>
<path d="M135.743 96C141.244 98.0172 144.581 97.8159 150 96.0522L149.986 142.81L116.645 162.487C114.61 163.691 112.556 164.862 110.483 166C110.018 160.745 107.787 156.838 104 153.293C113.28 147.959 127.149 140.328 135.807 134.504C135.544 121.848 135.719 108.674 135.743 96Z" fill="#0F1011"/>
<path d="M35.1901 96C40.3183 98.1476 44.2124 97.7165 49.2902 96.0762L49.2884 134.528C59.2473 140.793 70.7473 147.213 81 153.211C78.3905 155.834 77.4432 156.71 75.9085 160.113C75.1698 162.503 74.8915 163.523 74.708 166C71.6808 164.039 68.0406 162.17 64.8984 160.256C55.1441 154.313 44.902 148.781 35.2256 142.764C34.864 127.703 35.0021 111.071 35.1901 96Z" fill="#0F1011"/>
</svg>
